<svg width="180" height="41" viewBox="0 0 180 41" fill="none" xmlns="http://www.w3.org/2000/svg">
<path d="M43.43 29.0678C43.2887 28.8493 43.1923 28.6244 43.1409 28.3931C43.0895 28.1618 43.1987 27.9177 43.4686 27.6607L45.8395 25.868C45.9551 25.7652 46.0901 25.7138 46.2443 25.7138C46.4884 25.7138 46.7133 25.8552 46.9189 26.1379C47.1631 26.4848 47.4265 26.8254 47.7092 27.1595C48.0048 27.4808 48.3325 27.7699 48.6923 28.0269C49.0649 28.2711 49.4762 28.4702 49.9259 28.6244C50.3757 28.7787 50.8833 28.8558 51.4487 28.8558C51.9113 28.8558 52.3804 28.7915 52.8558 28.663C53.3313 28.5345 53.7618 28.3546 54.1473 28.1233C54.5328 27.892 54.8477 27.6093 55.0918 27.2751C55.336 26.941 55.458 26.5619 55.458 26.1379C55.458 25.6367 55.3552 25.2448 55.1496 24.9621C54.9569 24.6793 54.6677 24.4416 54.2822 24.2489C53.9096 24.0561 53.4469 23.889 52.8944 23.7477C52.3547 23.5935 51.7314 23.4136 51.0246 23.208C49.8038 22.8353 48.7437 22.4241 47.8441 21.9743C46.9446 21.5117 46.1993 20.9848 45.6082 20.3937C45.0299 19.7897 44.593 19.1022 44.2974 18.3312C44.0147 17.5602 43.8734 16.6799 43.8734 15.6904C43.8734 14.9066 44.0597 14.1227 44.4323 13.3388C44.805 12.5549 45.3383 11.8482 46.0322 11.2185C46.739 10.576 47.5936 10.0555 48.5959 9.65716C49.6111 9.25879 50.7548 9.05961 52.027 9.05961C52.9908 9.05961 53.8646 9.17526 54.6485 9.40657C55.4452 9.63788 56.1584 9.93344 56.7881 10.2933C57.4177 10.6402 57.9639 11.0386 58.4265 11.4883C58.902 11.9253 59.3068 12.3558 59.6409 12.7798C59.8079 12.9983 59.8979 13.1975 59.9107 13.3774C59.9364 13.5573 59.8208 13.75 59.5638 13.9556L57.3663 15.7676C57.2121 15.9089 57.0451 15.9796 56.8652 15.9796C56.6724 15.9796 56.4797 15.8639 56.2869 15.6326C55.7729 15.0415 55.201 14.566 54.5714 14.2062C53.9545 13.8464 53.1514 13.6665 52.1619 13.6665C51.1467 13.6665 50.3757 13.8785 49.8488 14.3026C49.322 14.7267 49.0585 15.2535 49.0585 15.8832C49.0585 16.3458 49.1806 16.7185 49.4248 17.0012C49.6689 17.2839 50.0223 17.5281 50.4849 17.7337C50.9475 17.9393 51.5065 18.132 52.1619 18.3119C52.8173 18.4919 53.5562 18.7039 54.3786 18.948C55.4837 19.2822 56.4283 19.7062 57.2121 20.2202C58.0089 20.7343 58.6578 21.3125 59.159 21.9551C59.6602 22.5847 60.0264 23.2658 60.2577 23.9983C60.5019 24.7179 60.6239 25.4632 60.6239 26.2343C60.6239 27.4422 60.3605 28.4959 59.8336 29.3955C59.3196 30.295 58.645 31.0403 57.8097 31.6315C56.9873 32.2226 56.0556 32.6659 55.0147 32.9615C53.9738 33.257 52.9265 33.4048 51.8728 33.4048C49.9709 33.4048 48.3003 33.0129 46.8611 32.229C45.4218 31.4451 44.2781 30.3914 43.43 29.0678Z" fill="#25252D"/>
<path d="M62.9708 32.2483V10.1198C62.9708 9.86276 63.0414 9.67643 63.1828 9.56078C63.337 9.43227 63.5105 9.36802 63.7032 9.36802H67.6355C67.8539 9.36802 68.0274 9.4387 68.1559 9.58005C68.2844 9.70856 68.3487 9.88846 68.3487 10.1198V32.2483C68.3487 32.7494 68.1109 33 67.6355 33H63.7032C63.2149 33 62.9708 32.7494 62.9708 32.2483Z" fill="#25252D"/>
<path d="M72.4689 32.2483V10.1198C72.4689 9.86276 72.5395 9.67643 72.6809 9.56078C72.8351 9.43227 73.0086 9.36802 73.2013 9.36802H77.1336C77.352 9.36802 77.5255 9.4387 77.654 9.58005C77.7825 9.70856 77.8468 9.88846 77.8468 10.1198V32.2483C77.8468 32.7494 77.609 33 77.1336 33H73.2013C72.713 33 72.4689 32.7494 72.4689 32.2483Z" fill="#25252D"/>
<path d="M87.287 19.1022V32.2097C87.3127 32.7366 87.0493 33 86.4967 33H82.6802C82.179 33 81.9284 32.7366 81.9284 32.2097V10.1583C81.9284 9.63146 82.179 9.36802 82.6802 9.36802H85.3209C85.5779 9.36802 85.8092 9.4644 86.0148 9.65716C86.2205 9.83706 86.349 10.0555 86.4004 10.3125L86.6702 12.5292C87.5183 11.4626 88.5078 10.6402 89.6387 10.0619C90.7695 9.47082 92.016 9.17526 93.3782 9.17526C94.9331 9.17526 96.2759 9.50938 97.4068 10.1776C98.5505 10.833 99.4886 11.8739 100.221 13.3003C100.632 12.6834 101.076 12.1244 101.551 11.6233C102.027 11.1093 102.56 10.6723 103.151 10.3125C103.742 9.95272 104.41 9.67643 105.156 9.48368C105.901 9.27807 106.756 9.17526 107.719 9.17526C109.248 9.17526 110.572 9.44512 111.69 9.98484C112.821 10.5117 113.753 11.2313 114.485 12.1437C115.23 13.0561 115.783 14.1163 116.143 15.3242C116.503 16.5322 116.682 17.8044 116.682 19.1408V32.2097C116.682 32.7366 116.432 33 115.931 33H112.191C111.677 33 111.42 32.7366 111.42 32.2097V19.1408C111.42 18.5368 111.317 17.9457 111.112 17.3674C110.906 16.7763 110.604 16.2494 110.206 15.7868C109.807 15.3114 109.313 14.9323 108.722 14.6496C108.143 14.354 107.475 14.2062 106.717 14.2062C106.087 14.2062 105.483 14.3283 104.905 14.5725C104.327 14.8166 103.819 15.1507 103.382 15.5748C102.945 15.9989 102.598 16.4936 102.341 17.059C102.084 17.6244 101.956 18.2348 101.956 18.8902V32.229C101.956 32.743 101.712 33 101.223 33H97.4646C96.9506 33 96.6936 32.743 96.6936 32.229V19.0637C96.6936 18.4854 96.5908 17.9072 96.3852 17.3289C96.1796 16.7506 95.8776 16.2302 95.4792 15.7676C95.0937 15.3049 94.6182 14.9258 94.0528 14.6303C93.4874 14.3347 92.8384 14.1869 92.106 14.1869C91.6048 14.1869 91.0715 14.2833 90.5061 14.4761C89.9407 14.656 89.4202 14.9451 88.9448 15.3435C88.4693 15.7419 88.0709 16.2559 87.7497 16.8855C87.4412 17.5024 87.287 18.2413 87.287 19.1022Z" fill="#25252D"/>
<path d="M124.735 21.1647C124.735 22.0514 124.896 22.9317 125.217 23.8055C125.551 24.6793 126.02 25.4632 126.624 26.1572C127.241 26.8511 127.98 27.4165 128.841 27.8534C129.702 28.2775 130.665 28.4895 131.732 28.4895C132.773 28.4895 133.717 28.3032 134.566 27.9305C135.426 27.545 136.159 27.0246 136.763 26.3692C137.38 25.701 137.855 24.9235 138.189 24.0368C138.523 23.1373 138.691 22.1799 138.691 21.1647C138.691 20.1496 138.53 19.2051 138.209 18.3312C137.887 17.4574 137.425 16.6992 136.821 16.0567C136.23 15.4142 135.504 14.913 134.643 14.5532C133.782 14.1805 132.818 13.9942 131.751 13.9942C130.685 13.9942 129.714 14.2062 128.841 14.6303C127.98 15.0415 127.241 15.5876 126.624 16.2687C126.02 16.9369 125.551 17.7015 125.217 18.5625C124.896 19.4235 124.735 20.2909 124.735 21.1647ZM119.762 39.3417V10.139C119.762 9.62503 120.019 9.36802 120.533 9.36802H123.174C123.508 9.36802 123.758 9.47082 123.925 9.67643C124.105 9.86919 124.227 10.1262 124.292 10.4475L124.696 12.7413C125.673 11.649 126.81 10.7816 128.108 10.139C129.419 9.49653 130.813 9.17526 132.291 9.17526C133.859 9.17526 135.343 9.4644 136.744 10.0427C138.157 10.6209 139.397 11.4369 140.464 12.4907C141.53 13.5444 142.372 14.8038 142.989 16.2687C143.619 17.7337 143.934 19.3528 143.934 21.1262C143.934 22.7968 143.644 24.3709 143.066 25.8487C142.488 27.3265 141.678 28.618 140.637 29.7232C139.609 30.8154 138.382 31.6829 136.956 32.3254C135.529 32.9551 133.968 33.2699 132.272 33.2699C130.794 33.2699 129.432 32.9872 128.185 32.4218C126.939 31.8435 125.853 31.0596 124.928 30.0701V39.3417C124.928 39.8558 124.684 40.1128 124.195 40.1128H120.533C120.019 40.1128 119.762 39.8558 119.762 39.3417Z" fill="#25252D"/>
<path d="M146.427 32.1905V3.33473C146.427 3.07772 146.498 2.87854 146.639 2.73718C146.794 2.59582 146.986 2.52515 147.218 2.52515H150.976C151.221 2.52515 151.413 2.60225 151.555 2.75646C151.696 2.91066 151.767 3.10342 151.767 3.33473V32.1905C151.767 32.4346 151.696 32.6338 151.555 32.788C151.426 32.9294 151.233 33 150.976 33H147.218C146.691 33 146.427 32.7302 146.427 32.1905Z" fill="#25252D"/>
<path d="M166.178 13.6665C165.394 13.6665 164.655 13.8014 163.961 14.0713C163.267 14.3283 162.631 14.6881 162.053 15.1507C161.487 15.6133 160.986 16.1531 160.549 16.7699C160.125 17.3867 159.791 18.0485 159.547 18.7553H172.751C172.481 18.01 172.127 17.3289 171.691 16.7121C171.266 16.0824 170.772 15.5427 170.206 15.0929C169.654 14.6431 169.037 14.2962 168.356 14.052C167.675 13.795 166.949 13.6665 166.178 13.6665ZM172.018 26.5234C172.185 26.4077 172.352 26.3499 172.519 26.3499C172.596 26.3499 172.674 26.3692 172.751 26.4077C172.828 26.4334 172.898 26.4913 172.963 26.5812L174.852 28.8943C175.173 29.3184 175.154 29.691 174.794 30.0123C173.393 31.2331 172.005 32.1069 170.63 32.6338C169.268 33.1607 167.816 33.4241 166.274 33.4241C164.655 33.4241 163.113 33.1093 161.648 32.4796C160.196 31.8371 158.911 30.9697 157.793 29.8774C156.688 28.7722 155.807 27.4872 155.152 26.0222C154.497 24.5573 154.169 22.9895 154.169 21.319C154.169 19.6484 154.464 18.0806 155.056 16.6157C155.66 15.1379 156.488 13.8464 157.542 12.7413C158.609 11.6361 159.875 10.7623 161.339 10.1198C162.804 9.47725 164.404 9.15599 166.139 9.15599C167 9.15599 167.88 9.26522 168.78 9.48368C169.692 9.68928 170.579 10.0105 171.44 10.4475C172.314 10.8715 173.136 11.4112 173.907 12.0666C174.678 12.722 175.346 13.4994 175.912 14.399C176.49 15.2985 176.946 16.3265 177.28 17.4831C177.627 18.6268 177.801 19.9054 177.801 21.319C177.801 21.7302 177.775 22.0579 177.724 22.302C177.672 22.5462 177.576 22.7389 177.435 22.8803C177.293 23.0088 177.101 23.0987 176.856 23.1501C176.612 23.1887 176.297 23.208 175.912 23.208H159.335C159.528 24.0433 159.842 24.8079 160.279 25.5018C160.716 26.1829 161.237 26.7676 161.841 27.2559C162.457 27.7313 163.145 28.104 163.903 28.3739C164.661 28.6309 165.464 28.7594 166.313 28.7594C167.122 28.7594 167.816 28.6887 168.394 28.5473C168.973 28.406 169.474 28.2261 169.898 28.0076C170.335 27.7763 170.714 27.5322 171.035 27.2751C171.369 27.0053 171.697 26.7547 172.018 26.5234Z" fill="#25252D"/>
<rect x="62.8599" y="0.345825" width="5.75701" height="5.75701" rx="1.23364" fill="#06B6D4"/>
<rect x="72.3179" y="0.345825" width="5.75701" height="5.75701" rx="1.23364" fill="#06B6D4"/>
<rect x="0.355225" y="1.9906" width="37.0093" height="37.0093" rx="6.99065" fill="#06B6D4"/>
<rect x="0.355225" y="1.9906" width="37.0093" height="37.0093" rx="6.99065" fill="url(#paint0_radial_5_12052)" fill-opacity="0.15"/>
<rect x="9.81311" y="11.0372" width="18.5047" height="6.57944" rx="2.05607" fill="white"/>
<rect x="9.81311" y="19.6729" width="7.81308" height="10.6916" rx="2.05607" fill="white"/>
<rect x="20.0936" y="19.6729" width="7.81308" height="10.6916" rx="2.05607" fill="white"/>
<defs>
<radialGradient id="paint0_radial_5_12052" cx="0" cy="0" r="1" gradientUnits="userSpaceOnUse" gradientTransform="translate(18.8599 20.4953) rotate(90) scale(49.3458)">
<stop stop-color="white"/>
<stop offset="1" stop-opacity="0"/>
</radialGradient>
</defs>
</svg>
