<svg width="189" height="45" viewBox="0 0 189 45" fill="none" xmlns="http://www.w3.org/2000/svg">
<path d="M50.9913 33.7467C51.8624 35.0953 53.0371 36.1689 54.5153 36.9676C55.9935 37.7662 57.7093 38.1656 59.6627 38.1656C60.7449 38.1656 61.8206 38.015 62.8897 37.7138C63.9587 37.4127 64.9156 36.961 65.7603 36.3587C66.6182 35.7565 67.3111 34.9971 67.839 34.0806C68.3802 33.1641 68.6507 32.0905 68.6507 30.8598C68.6507 30.0742 68.5254 29.3148 68.2746 28.5816C68.037 27.8353 67.6609 27.1414 67.1461 26.4999C66.6314 25.8452 65.9649 25.256 65.1466 24.7323C64.3415 24.2086 63.3714 23.7765 62.2363 23.4361C61.3916 23.1874 60.6327 22.9713 59.9596 22.788C59.2865 22.6047 58.7124 22.4083 58.2372 22.1989C57.7621 21.9894 57.3991 21.7406 57.1484 21.4526C56.8976 21.1645 56.7722 20.7848 56.7722 20.3135C56.7722 19.6719 57.0428 19.1351 57.5839 18.7031C58.1251 18.271 58.917 18.055 59.9596 18.055C60.9759 18.055 61.8008 18.2383 62.4343 18.6049C63.081 18.9715 63.6684 19.4559 64.1963 20.0582C64.3943 20.2939 64.5922 20.4117 64.7902 20.4117C64.975 20.4117 65.1466 20.3397 65.305 20.1957L67.5619 18.3496C67.8258 18.1401 67.9446 17.9437 67.9182 17.7604C67.905 17.5771 67.8126 17.3742 67.6411 17.1516C67.2979 16.7195 66.8822 16.2809 66.3938 15.8358C65.9187 15.3775 65.3578 14.9716 64.711 14.6181C64.0643 14.2515 63.3318 13.9504 62.5135 13.7147C61.7084 13.4791 60.8109 13.3612 59.821 13.3612C58.5144 13.3612 57.3398 13.5642 56.2971 13.97C55.2676 14.3759 54.3899 14.9062 53.664 15.5608C52.9513 16.2024 52.4036 16.9225 52.0208 17.7211C51.6381 18.5198 51.4467 19.3184 51.4467 20.1171C51.4467 21.1253 51.5919 22.0221 51.8822 22.8077C52.1858 23.5932 52.6345 24.2937 53.2285 24.9091C53.8356 25.5113 54.6011 26.0482 55.525 26.5195C56.4489 26.9777 57.5377 27.3967 58.7916 27.7764C59.5175 27.9859 60.1576 28.1692 60.7119 28.3263C61.2795 28.4703 61.7546 28.6405 62.1374 28.8369C62.5333 29.0333 62.8303 29.2755 63.0282 29.5636C63.2394 29.8516 63.345 30.2509 63.345 30.7616C63.345 31.1936 63.2196 31.5799 62.9688 31.9203C62.7181 32.2607 62.3947 32.5487 61.9988 32.7844C61.6028 33.0201 61.1607 33.2034 60.6723 33.3343C60.184 33.4652 59.7023 33.5307 59.2271 33.5307C58.6464 33.5307 58.1251 33.4521 57.6631 33.295C57.2012 33.1379 56.7788 32.935 56.3961 32.6862C56.0265 32.4244 55.69 32.1298 55.3864 31.8024C55.096 31.462 54.8255 31.1151 54.5747 30.7616C54.3635 30.4735 54.1325 30.3295 53.8818 30.3295C53.7234 30.3295 53.5848 30.3819 53.466 30.4866L51.0309 32.3131C50.7538 32.5749 50.6416 32.8237 50.6944 33.0594C50.7472 33.295 50.8462 33.5241 50.9913 33.7467Z" fill="#25252D"/>
<path d="M71.0611 36.9872C71.0611 37.4978 71.3119 37.7531 71.8134 37.7531H75.8521C76.3404 37.7531 76.5846 37.4978 76.5846 36.9872V14.4414C76.5846 14.2057 76.5186 14.0224 76.3866 13.8915C76.2547 13.7475 76.0765 13.6754 75.8521 13.6754H71.8134C71.6154 13.6754 71.4373 13.7409 71.2789 13.8718C71.1337 13.9897 71.0611 14.1795 71.0611 14.4414V36.9872Z" fill="#25252D"/>
<path d="M80.8163 36.9872C80.8163 37.4978 81.0671 37.7531 81.5686 37.7531H85.6073C86.0957 37.7531 86.3399 37.4978 86.3399 36.9872V14.4414C86.3399 14.2057 86.2739 14.0224 86.1419 13.8915C86.0099 13.7475 85.8317 13.6754 85.6073 13.6754H81.5686C81.3707 13.6754 81.1925 13.7409 81.0341 13.8718C80.8889 13.9897 80.8163 14.1795 80.8163 14.4414V36.9872Z" fill="#25252D"/>
<path d="M96.0357 23.5932C96.0357 22.716 96.1941 21.9632 96.5108 21.3347C96.8408 20.6932 97.2499 20.1695 97.7383 19.7636C98.2266 19.3577 98.7612 19.0631 99.3419 18.8798C99.9226 18.6834 100.47 18.5852 100.985 18.5852C101.737 18.5852 102.404 18.7358 102.985 19.0369C103.565 19.3381 104.054 19.7243 104.45 20.1957C104.859 20.667 105.169 21.1973 105.38 21.7864C105.591 22.3756 105.697 22.9648 105.697 23.554V36.9676C105.697 37.4913 105.961 37.7531 106.489 37.7531H110.349C110.851 37.7531 111.102 37.4913 111.102 36.9676V23.3772C111.102 22.7095 111.234 22.0876 111.498 21.5115C111.762 20.9354 112.118 20.4313 112.567 19.9993C113.015 19.5672 113.537 19.2268 114.131 18.978C114.725 18.7293 115.345 18.6049 115.992 18.6049C116.77 18.6049 117.457 18.7555 118.051 19.0566C118.658 19.3446 119.166 19.7309 119.575 20.2153C119.984 20.6866 120.294 21.2234 120.505 21.8257C120.717 22.4149 120.822 23.0172 120.822 23.6325V36.9479C120.822 37.4847 121.086 37.7531 121.614 37.7531H125.455C125.97 37.7531 126.227 37.4847 126.227 36.9479V23.6325C126.227 22.2709 126.042 20.9747 125.673 19.744C125.303 18.5132 124.736 17.4331 123.97 16.5035C123.218 15.5739 122.261 14.8407 121.099 14.3039C119.951 13.754 118.592 13.4791 117.021 13.4791C116.031 13.4791 115.154 13.5838 114.388 13.7933C113.623 13.9897 112.936 14.2712 112.329 14.6378C111.722 15.0044 111.174 15.4495 110.686 15.9732C110.198 16.4839 109.742 17.0534 109.32 17.6818C108.568 16.2285 107.604 15.168 106.429 14.5003C105.268 13.8195 103.889 13.4791 102.292 13.4791C100.893 13.4791 99.6125 13.7802 98.451 14.3825C97.2895 14.9716 96.2733 15.8096 95.4022 16.8963L95.125 14.6378C95.0722 14.3759 94.9402 14.1533 94.7291 13.97C94.5179 13.7736 94.2803 13.6754 94.0163 13.6754H91.3041C90.7893 13.6754 90.532 13.9438 90.532 14.4806V36.9479C90.532 37.4847 90.7893 37.7531 91.3041 37.7531H95.224C95.7915 37.7531 96.0621 37.4847 96.0357 36.9479V23.5932Z" fill="#25252D"/>
<path d="M134.497 25.6946C134.497 24.8043 134.662 23.9206 134.992 23.0434C135.335 22.1661 135.817 21.3871 136.438 20.7063C137.071 20.0124 137.83 19.4559 138.714 19.0369C139.612 18.6049 140.608 18.3889 141.704 18.3889C142.799 18.3889 143.789 18.5787 144.673 18.9584C145.558 19.325 146.303 19.8356 146.91 20.4903C147.531 21.1449 148.006 21.9174 148.336 22.8077C148.666 23.698 148.831 24.6603 148.831 25.6946C148.831 26.729 148.659 27.7044 148.316 28.6209C147.973 29.5243 147.485 30.3164 146.851 30.9972C146.231 31.665 145.478 32.1952 144.594 32.588C143.723 32.9677 142.753 33.1576 141.684 33.1576C140.588 33.1576 139.599 32.9415 138.714 32.5095C137.83 32.0643 137.071 31.4882 136.438 30.7812C135.817 30.0742 135.335 29.2755 134.992 28.3852C134.662 27.4949 134.497 26.5981 134.497 25.6946ZM129.39 44.2144C129.39 44.7381 129.654 45 130.182 45H133.943C134.445 45 134.695 44.7381 134.695 44.2144V34.768C135.646 35.7761 136.761 36.5748 138.041 37.164C139.321 37.74 140.72 38.0281 142.238 38.0281C143.98 38.0281 145.584 37.7073 147.049 37.0658C148.514 36.4111 149.774 35.5273 150.83 34.4145C151.899 33.2885 152.731 31.9726 153.325 30.467C153.919 28.9613 154.216 27.3574 154.216 25.6554C154.216 23.8486 153.892 22.1989 153.246 20.7063C152.612 19.2137 151.748 17.9306 150.652 16.857C149.557 15.7834 148.283 14.952 146.831 14.3628C145.393 13.7736 143.868 13.4791 142.258 13.4791C140.74 13.4791 139.308 13.8064 137.962 14.461C136.629 15.1157 135.461 15.9994 134.458 17.1123L134.042 14.7752C133.976 14.4479 133.851 14.1861 133.666 13.9897C133.494 13.7802 133.237 13.6754 132.894 13.6754H130.182C129.654 13.6754 129.39 13.9373 129.39 14.461V44.2144Z" fill="#25252D"/>
<path d="M156.777 36.9283C156.777 37.4782 157.048 37.7531 157.589 37.7531H161.449C161.713 37.7531 161.911 37.6811 162.043 37.5371C162.188 37.38 162.261 37.177 162.261 36.9283V7.52837C162.261 7.2927 162.188 7.09631 162.043 6.93919C161.898 6.78208 161.7 6.70352 161.449 6.70352H157.589C157.351 6.70352 157.153 6.77553 156.995 6.91955C156.85 7.06357 156.777 7.26651 156.777 7.52837V36.9283Z" fill="#25252D"/>
<path d="M177.062 18.055C177.854 18.055 178.6 18.1859 179.299 18.4478C179.999 18.6965 180.632 19.05 181.2 19.5083C181.78 19.9665 182.289 20.5164 182.724 21.158C183.173 21.7864 183.536 22.4804 183.813 23.2397H170.252C170.502 22.5196 170.846 21.8454 171.281 21.2169C171.73 20.5885 172.245 20.0385 172.825 19.5672C173.419 19.0959 174.073 18.7293 174.785 18.4674C175.498 18.1925 176.257 18.055 177.062 18.055ZM183.061 31.1544C182.731 31.39 182.394 31.6453 182.051 31.9203C181.721 32.1821 181.332 32.4309 180.883 32.6666C180.447 32.8891 179.933 33.0724 179.339 33.2165C178.745 33.3605 178.032 33.4325 177.201 33.4325C176.33 33.4325 175.505 33.3016 174.726 33.0397C173.947 32.7648 173.241 32.3851 172.608 31.9006C171.987 31.4031 171.453 30.8074 171.004 30.1135C170.555 29.4065 170.232 28.6274 170.034 27.7764H187.06C187.456 27.7764 187.779 27.7568 188.03 27.7175C188.281 27.6651 188.479 27.5735 188.624 27.4425C188.769 27.2985 188.868 27.1021 188.921 26.8534C188.974 26.6046 189 26.2707 189 25.8518C189 24.4116 188.822 23.1088 188.465 21.9436C188.122 20.7652 187.654 19.7178 187.06 18.8013C186.479 17.8848 185.793 17.0927 185.001 16.4249C184.209 15.7572 183.364 15.2073 182.467 14.7752C181.583 14.3301 180.672 14.0028 179.735 13.7933C178.811 13.5707 177.907 13.4594 177.022 13.4594C175.241 13.4594 173.598 13.7867 172.093 14.4414C170.588 15.096 169.288 15.9863 168.193 17.1123C167.111 18.2383 166.259 19.5541 165.639 21.0598C165.032 22.5524 164.728 24.1497 164.728 25.8518C164.728 27.5538 165.065 29.1511 165.738 30.6437C166.411 32.1363 167.315 33.4456 168.45 34.5716C169.598 35.6845 170.918 36.5682 172.41 37.2229C173.914 37.8644 175.498 38.1852 177.161 38.1852C178.745 38.1852 180.236 37.9168 181.635 37.38C183.048 36.8432 184.473 35.9529 185.912 34.709C186.281 34.3817 186.301 34.002 185.971 33.57L184.031 31.2133C183.965 31.1216 183.892 31.0627 183.813 31.0365C183.734 30.9972 183.655 30.9776 183.575 30.9776C183.404 30.9776 183.232 31.0365 183.061 31.1544Z" fill="#25252D"/>
<path d="M66.3086 0H91.2271V9.63631H66.3086V0Z" fill="#F1F5F9"/>
<path d="M70.9544 4.1897C70.9544 3.49553 71.5217 2.93279 72.2214 2.93279H75.6002C76.3 2.93279 76.8673 3.49553 76.8673 4.1897V7.54146C76.8673 8.23563 76.3 8.79837 75.6002 8.79837H72.2214C71.5217 8.79837 70.9544 8.23563 70.9544 7.54146V4.1897Z" fill="#06B6D4"/>
<path d="M80.6684 4.1897C80.6684 3.49553 81.2357 2.93279 81.9354 2.93279H85.3142C86.014 2.93279 86.5812 3.49553 86.5812 4.1897V7.54146C86.5812 8.23563 86.014 8.79837 85.3142 8.79837H81.9354C81.2357 8.79837 80.6684 8.23563 80.6684 7.54146V4.1897Z" fill="#06B6D4"/>
<path d="M0 10.8932C0 6.95958 3.21455 3.77073 7.17991 3.77073H30.8314C34.7967 3.77073 38.0113 6.95958 38.0113 10.8932V34.3555C38.0113 38.2892 34.7967 41.478 30.8314 41.478H7.17991C3.21456 41.478 0 38.2892 0 34.3555V10.8932Z" fill="#06B6D4"/>
<path d="M0 10.8932C0 6.95958 3.21455 3.77073 7.17991 3.77073H30.8314C34.7967 3.77073 38.0113 6.95958 38.0113 10.8932V34.3555C38.0113 38.2892 34.7967 41.478 30.8314 41.478H7.17991C3.21456 41.478 0 38.2892 0 34.3555V10.8932Z" fill="url(#paint0_radial_205_7)" fill-opacity="0.15"/>
<path d="M9.71399 15.0829C9.71399 13.926 10.6595 12.9881 11.8257 12.9881H26.6079C27.7742 12.9881 28.7196 13.926 28.7196 15.0829V17.5967C28.7196 18.7537 27.7742 19.6916 26.6079 19.6916H11.8257C10.6595 19.6916 9.71399 18.7537 9.71399 17.5967V15.0829Z" fill="white"/>
<path d="M9.71399 23.8813C9.71399 22.7243 10.6595 21.7864 11.8257 21.7864H15.6269C16.7931 21.7864 17.7386 22.7243 17.7386 23.8813V30.5848C17.7386 31.7418 16.7931 32.6797 15.6269 32.6797H11.8257C10.6595 32.6797 9.71399 31.7418 9.71399 30.5848V23.8813Z" fill="white"/>
<path d="M20.2727 23.8813C20.2727 22.7243 21.2181 21.7864 22.3844 21.7864H26.1855C27.3518 21.7864 28.2973 22.7243 28.2973 23.8813V30.5848C28.2973 31.7418 27.3518 32.6797 26.1855 32.6797H22.3844C21.2181 32.6797 20.2727 31.7418 20.2727 30.5848V23.8813Z" fill="white"/>
<defs>
<radialGradient id="paint0_radial_205_7" cx="0" cy="0" r="1" gradientUnits="userSpaceOnUse" gradientTransform="translate(94.5 22.5) rotate(90) scale(60 252)">
<stop stop-color="white"/>
<stop offset="1" stop-opacity="0"/>
</radialGradient>
</defs>
</svg>
